<svg xmlns="http://www.w3.org/2000/svg" xmlns:xlink="http://www.w3.org/1999/xlink" version="1.1" x="0px" y="0px" viewBox="0 0 100.017 296.47875" style="enable-background:new 0 0 100.017 237.183;" xml:space="preserve"><g><path style="fill:#F4431D;" d="M8.575,146.637c0.158,0,0.316-0.005,0.476-0.014c4.41-0.258,7.775-4.044,7.517-8.455c-0.39-6.65-0.568-12.708-0.568-18.221   c-0.033-24.213,3.496-37.818,6.964-44.918v32.852v18.94v98c0,6.83,5.537,12.363,12.363,12.363c6.828,0,12.365-5.533,12.365-12.363   v-90.271h4.635v90.271c0,6.83,5.537,12.363,12.363,12.363c6.828,0,12.365-5.533,12.365-12.363v-98v-18.94V75.071   c0.592,1.216,1.19,2.611,1.78,4.238c2.819,7.813,5.189,20.629,5.18,40.638c0,5.515-0.176,11.573-0.564,18.223   c-0.258,4.411,3.109,8.195,7.52,8.453c0.159,0.009,0.317,0.014,0.475,0.014c4.206,0,7.731-3.284,7.979-7.535   c0.403-6.932,0.589-13.3,0.591-19.155c-0.041-30.183-4.863-46.887-11.434-56.932c-3.285-4.986-7.128-8.183-10.679-9.955   c-2.319-1.17-4.445-1.72-6.14-1.964c-0.767-0.254-1.584-0.398-2.437-0.398H30.692c-0.852,0-1.669,0.143-2.436,0.397   c-1.696,0.244-3.822,0.794-6.143,1.965c-5.379,2.667-11.178,8.502-15.236,18.84C2.772,82.28,0.014,97.287,0,119.947   c0,5.855,0.188,12.223,0.595,19.157C0.844,143.355,4.369,146.637,8.575,146.637z"/><ellipse style="fill:#F4431D;" transform="matrix(0.2268 -0.9739 0.9739 0.2268 16.7551 66.1037)" cx="50.01" cy="22.499" rx="22.495" ry="22.495"/></g></svg>
